<?xml version="1.0" encoding="UTF-8" standalone="no"?>
<!-- Created with Inkscape (http://www.inkscape.org/) -->

<svg
   xmlns:dc="http://purl.org/dc/elements/1.1/"
   xmlns:cc="http://creativecommons.org/ns#"
   xmlns:rdf="http://www.w3.org/1999/02/22-rdf-syntax-ns#"
   xmlns:svg="http://www.w3.org/2000/svg"
   xmlns="http://www.w3.org/2000/svg"
   xmlns:sodipodi="http://sodipodi.sourceforge.net/DTD/sodipodi-0.dtd"
   xmlns:inkscape="http://www.inkscape.org/namespaces/inkscape"
   width="86.64357mm"
   height="18.862667mm"
   viewBox="0 0 86.64357 18.862667"
   version="1.1"
   id="svg8"
   inkscape:version="0.92.1 r15371"
   sodipodi:docname="jumpstart_logo_white.svg"
   inkscape:export-filename="\\MacLeod\ferg\Documents\Jumpstart Software Consulting\Logo\jumpstart_logo_white.png"
   inkscape:export-xdpi="96"
   inkscape:export-ydpi="96">
  <defs
     id="defs2" />
  <sodipodi:namedview
     id="base"
     pagecolor="#ffffff"
     bordercolor="#666666"
     borderopacity="1.0"
     inkscape:pageopacity="0.0"
     inkscape:pageshadow="2"
     inkscape:zoom="2.8284271"
     inkscape:cx="58.091296"
     inkscape:cy="39.642438"
     inkscape:document-units="mm"
     inkscape:current-layer="layer1"
     showgrid="false"
     inkscape:window-width="1920"
     inkscape:window-height="1017"
     inkscape:window-x="1912"
     inkscape:window-y="-8"
     inkscape:window-maximized="1"
     inkscape:measure-start="501.687,545.937"
     inkscape:measure-end="0,0"
     fit-margin-top="0.5"
     fit-margin-left="1"
     fit-margin-right="1"
     fit-margin-bottom="0.5" />
  <metadata
     id="metadata5">
    <rdf:RDF>
      <cc:Work
         rdf:about="">
        <dc:format>image/svg+xml</dc:format>
        <dc:type
           rdf:resource="http://purl.org/dc/dcmitype/StillImage" />
        <dc:title></dc:title>
      </cc:Work>
    </rdf:RDF>
  </metadata>
  <g
     inkscape:label="Layer 1"
     inkscape:groupmode="layer"
     id="layer1"
     transform="translate(-69.260299,-94.676233)">
    <g
       id="g4971"
       transform="translate(-46.692097,-40.3953)"
       style="fill:#ffffff;fill-opacity:1">
      <path
         transform="scale(0.26458333)"
         sodipodi:nodetypes="cccccccccccccsccsscsccscsssscsscscscssscsssscscsccccccccccccsssscccsscccscscccccccscccsccccccccccccccccccccccccccccccccccccccccccccccccc"
         inkscape:connector-curvature="0"
         id="path4563"
         d="m 477.24219,512.42383 c -1.47078,-0.0585 -2.94271,-0.024 -4.4043,0.10742 -9.91105,0.64732 -19.37437,5.96377 -24.91406,14.23047 -7.56586,10.32041 -7.64321,24.90509 -1.43945,35.88476 0.91159,1.75471 2.03705,3.36217 3.26171,4.88672 0.66639,-0.29457 3.59689,-1.27389 3.76172,-1.24609 0.10609,0.0186 1.01454,2.85265 0.94727,2.95508 -0.0164,0.025 -0.77781,0.28729 -1.69336,0.58398 -0.3459,0.11215 -0.45283,0.18987 -0.71484,0.28516 7.2094,7.18045 17.81515,10.9191 27.95312,9.5 16.09168,-2.15123 30.18643,-17.01106 29.50195,-33.58399 0.0599,-6.90156 -2.21929,-13.73396 -6.11523,-19.40234 -5.64692,-8.78696 -15.84909,-13.79142 -26.14453,-14.20117 z m 9.49023,7.93164 c 1.49133,0 2.911,0.30315 4.20313,0.84961 1.29212,0.54646 2.45642,1.33729 3.43359,2.31445 0.97717,0.97717 1.76799,2.13953 2.31445,3.43164 0.54646,1.29211 0.84766,2.71377 0.84766,4.20508 0,0.99669 -0.13552,1.95829 -0.39063,2.87109 -0.25501,0.91281 -0.62943,1.77559 -1.10351,2.57227 -0.47408,0.79668 -1.04814,1.52745 -1.70508,2.17578 -0.65694,0.64834 -1.3975,1.21584 -2.20117,1.68359 v 3.65625 c 0,0.59694 -0.24178,1.13854 -0.63281,1.5293 -0.39103,0.39077 -0.92951,0.63086 -1.52539,0.63086 h -6.48047 c -0.59694,0 -1.13658,-0.2401 -1.52735,-0.63086 -0.39076,-0.39075 -0.63281,-0.93232 -0.63281,-1.5293 v -3.65625 c -0.80367,-0.46828 -1.54228,-1.03516 -2.19922,-1.68359 -0.65694,-0.64843 -1.23295,-1.37923 -1.70703,-2.17578 -0.47408,-0.79655 -0.84646,-1.65963 -1.10156,-2.57227 -0.2551,-0.91263 -0.39258,-1.8744 -0.39258,-2.87109 0,-1.49133 0.30315,-2.91295 0.84961,-4.20508 0.54646,-1.29212 1.33728,-2.45447 2.31445,-3.43164 0.97717,-0.97717 2.13952,-1.76799 3.43164,-2.31445 1.29213,-0.54646 2.71376,-0.84961 4.20508,-0.84961 z m -3.24023,27 h 6.48047 c 0.29848,0 0.56829,0.12103 0.76367,0.31641 0.19538,0.19528 0.3164,0.46518 0.3164,0.76367 0,0.29849 -0.12102,0.56829 -0.3164,0.76367 -0.19538,0.19538 -0.46519,0.3164 -0.76367,0.3164 h -6.48047 c -0.29849,0 -0.5683,-0.12102 -0.76367,-0.3164 -0.19538,-0.19538 -0.31641,-0.46518 -0.31641,-0.76367 0,-0.29849 0.12103,-0.56839 0.31641,-0.76367 0.19537,-0.19538 0.46518,-0.31641 0.76367,-0.31641 z m -22.01367,1.79687 c 3.35531,-0.009 6.70417,-9.4e-4 6.89843,0.0293 0.42739,0.0703 0.99512,0.55283 1.13867,0.9668 0.15194,0.44061 0.14773,3.84564 -0.008,4.31445 -0.1796,0.54595 -0.6095,0.90022 -1.19922,0.98828 -0.57819,0.0847 -13.46459,0.14099 -13.83007,0.0586 -0.31253,-0.0705 -0.82438,-0.46465 -1.00391,-0.77344 -0.19351,-0.33098 -0.19557,-0.36356 -0.20313,-2.35938 -0.006,-1.24025 0.0374,-1.92577 0.13868,-2.19336 0.17053,-0.45018 0.69626,-0.90021 1.1289,-0.96484 0.2211,-0.0329 3.58418,-0.0589 6.93946,-0.0664 z m 22.01367,1.44336 h 6.48047 c 0.29848,0 0.56829,0.12103 0.76367,0.31641 0.19538,0.19538 0.3164,0.46518 0.3164,0.76367 0,0.29849 -0.12102,0.5683 -0.3164,0.76367 -0.19538,0.19538 -0.46519,0.31641 -0.76367,0.31641 0,0.59694 -0.24206,1.13658 -0.63282,1.52734 -0.39076,0.39077 -0.93038,0.63282 -1.52734,0.63282 h -2.16016 c -0.59693,0 -1.13657,-0.24206 -1.52734,-0.63282 -0.39077,-0.39075 -0.63281,-0.93036 -0.63281,-1.52734 -0.29849,0 -0.5683,-0.12103 -0.76367,-0.31641 -0.19538,-0.19537 -0.31641,-0.46518 -0.31641,-0.76367 0,-0.29849 0.12103,-0.56829 0.31641,-0.76367 0.19537,-0.19538 0.46518,-0.31641 0.76367,-0.31641 z m -1.92969,0.10157 -0.002,3.11914 c -0.51867,-1.2e-4 -1.02992,0.23805 -1.31641,0.71484 l -0.22852,0.38086 -0.39257,-0.30469 c -0.21638,-0.16702 -0.63445,-0.38661 -0.92774,-0.48828 -0.44541,-0.1542 -0.66318,-0.16513 -1.32422,-0.0664 -0.47174,0.0705 -0.85174,0.19653 -1.17773,0.39844 -0.32599,0.20191 -0.5974,0.4807 -0.84766,0.85742 -0.17083,0.25743 -0.32277,0.45262 -0.33789,0.4375 -0.0154,-0.0165 -0.20732,-0.23902 -0.42578,-0.49414 -0.29216,-0.34089 -0.66552,-0.62129 -1.07422,-0.81836 -0.4087,-0.19707 -0.85271,-0.3108 -1.2832,-0.31836 -0.22303,-0.004 -0.53418,-0.01 -0.69141,-0.0176 -0.24756,-0.0117 -0.2866,-0.0508 -0.27148,-0.28516 0.01,-0.1491 0.0151,-0.87929 0.0117,-1.62109 -10e-4,-0.74185 0.0164,-1.37406 0.0391,-1.4043 0.023,-0.031 3.6939,-0.0708 8.1582,-0.0859 0.9111,-0.003 1.36054,-0.002 2.0918,-0.004 z m -3.47461,4.10546 c 0.16539,0.0197 0.32376,0.0719 0.54297,0.16602 0.43672,0.18743 0.67145,0.40005 1.34375,1.20898 0.45403,0.54626 0.76127,0.86628 1.05078,1.03711 0.2894,0.17273 0.55986,0.19108 0.93555,0.13477 0.50313,-0.0756 0.93515,-0.38445 1.15625,-0.82813 0.39658,-0.79596 0.47322,-0.87419 0.89453,-0.91992 0.56039,-0.061 0.81072,0.0514 1.06055,0.47852 0.22783,0.38974 0.59391,0.66106 0.99023,0.78125 0.39636,0.12019 0.82277,0.0905 1.17578,-0.12305 0.17533,-0.10609 0.47799,-0.39905 0.67188,-0.65039 0.43857,-0.5684 0.91662,-0.89724 1.33789,-0.91992 l 0.32422,-0.0156 0.15234,1.03907 c 0.0877,0.6003 0.11198,0.99048 0.0488,1.28906 -0.0631,0.29851 -0.21395,0.50597 -0.47852,0.74219 -0.29998,0.26755 -1.09454,0.52717 -8.2168,2.67968 -4.33639,1.31055 -7.89503,2.3767 -7.91015,2.36914 -0.0143,-0.008 -0.23512,-0.68589 -0.49024,-1.50586 -0.25519,-0.81995 -0.47707,-1.53913 -0.49218,-1.5996 -0.0173,-0.0643 0.25181,-0.19547 0.64843,-0.31641 0.63814,-0.19438 1.14103,-0.47177 1.54102,-0.86719 0.39995,-0.39541 0.69662,-0.90744 0.92188,-1.5664 0.31633,-0.92603 0.59444,-1.52964 0.92968,-1.92188 0.33513,-0.39209 0.7276,-0.5731 1.27344,-0.65625 0.24926,-0.0378 0.42235,-0.0503 0.58789,-0.0312 v -0.002 z m -9.08398,4.65625 0.51562,0.16797 c 0.38037,0.12322 0.60901,0.24679 0.81836,0.59375 0.20939,0.34696 0.39957,0.91656 0.70703,1.9336 0.32806,1.08223 0.4915,1.7191 0.48828,2.16992 -0.003,0.45082 -0.17199,0.7168 -0.50976,1.05469 -0.28951,0.28951 -13.2383,4.221 -13.70117,4.16015 -0.45245,-0.0597 -0.74485,-0.175 -0.99415,-0.5 -0.24907,-0.32504 -0.45596,-0.8585 -0.73632,-1.7539 -0.56795,-1.81342 -0.68438,-2.49517 -0.50977,-2.98243 0.12851,-0.35943 0.21429,-0.54877 1.1543,-0.91406 0.93982,-0.36548 2.73424,-0.90569 6.27539,-1.97265 z"
         style="fill:#ffffff;fill-opacity:1;stroke:#000000;stroke-width:0;stroke-miterlimit:4;stroke-dasharray:none;stroke-opacity:1" />
      <path
         inkscape:connector-curvature="0"
         id="path4803"
         d="m 126.42226,147.15587 c -0.0541,7.9e-4 -0.10952,0.0246 -0.15142,0.076 -0.068,0.0833 -0.0783,0.15777 -0.0326,0.23667 0.0596,0.10289 0.16311,0.12688 0.24701,0.0956 0.0839,-0.0313 0.14844,-0.11765 0.13074,-0.23617 -0.0164,-0.10963 -0.10348,-0.17308 -0.19378,-0.17208 z"
         style="fill:#ffffff;fill-opacity:1;stroke:#000000;stroke-width:0;stroke-miterlimit:4;stroke-dasharray:none;stroke-opacity:1" />
    </g>
    <g
       id="g4498"
       style="fill:#ffffff;fill-opacity:1">
      <g
         aria-label="JUMPSTART"
         style="font-style:normal;font-variant:normal;font-weight:normal;font-stretch:normal;font-size:10.58333302px;line-height:1.25;font-family:Gotham;-inkscape-font-specification:'Gotham, Normal';font-variant-ligatures:normal;font-variant-caps:normal;font-variant-numeric:normal;font-feature-settings:normal;text-align:start;letter-spacing:0px;word-spacing:0px;writing-mode:lr-tb;text-anchor:start;fill:#ffffff;fill-opacity:1;stroke:none;stroke-width:0.02645833"
         id="text4729-9">
        <path
           d="m 92.231685,105.32374 c 0.804333,0 1.471083,-0.23283 1.926167,-0.68791 0.4445,-0.4445 0.6985,-1.10067 0.6985,-1.97909 v -4.847162 h -1.672167 v 4.773082 c 0,0.85725 -0.381,1.22767 -0.994833,1.22767 -0.518584,0 -0.931334,-0.27517 -1.354667,-0.74084 l -1.026583,1.143 c 0.508,0.60325 1.27,1.11125 2.423583,1.11125 z"
           style="font-style:normal;font-variant:normal;font-weight:normal;font-stretch:normal;font-size:10.58333302px;font-family:Gotham;-inkscape-font-specification:'Gotham, Normal';font-variant-ligatures:normal;font-variant-caps:normal;font-variant-numeric:normal;font-feature-settings:normal;text-align:start;writing-mode:lr-tb;text-anchor:start;fill:#ffffff;fill-opacity:1;stroke-width:0.02645833"
           id="path4490"
           inkscape:connector-curvature="0" />
        <path
           d="m 99.613064,105.33433 c 1.989666,0 3.249086,-1.10067 3.249086,-3.34434 v -4.180412 h -1.62984 v 4.243912 c 0,1.17475 -0.60325,1.778 -1.59808,1.778 -0.994833,0 -1.598083,-0.62441 -1.598083,-1.83091 v -4.191002 h -1.629833 v 4.233332 c 0,2.18017 1.217083,3.29142 3.20675,3.29142 z"
           style="font-style:normal;font-variant:normal;font-weight:normal;font-stretch:normal;font-size:10.58333302px;font-family:Gotham;-inkscape-font-specification:'Gotham, Normal';font-variant-ligatures:normal;font-variant-caps:normal;font-variant-numeric:normal;font-feature-settings:normal;text-align:start;writing-mode:lr-tb;text-anchor:start;fill:#ffffff;fill-opacity:1;stroke-width:0.02645833"
           id="path4492"
           inkscape:connector-curvature="0" />
        <path
           d="m 104.52224,105.21791 h 1.59808 v -4.80483 l 2.06375,3.13266 h 0.0423 l 2.08491,-3.16441 v 4.83658 h 1.61925 v -7.408332 h -1.75683 l -1.94733,3.132662 -1.94734,-3.132662 h -1.75683 z"
           style="font-style:normal;font-variant:normal;font-weight:normal;font-stretch:normal;font-size:10.58333302px;font-family:Gotham;-inkscape-font-specification:'Gotham, Normal';font-variant-ligatures:normal;font-variant-caps:normal;font-variant-numeric:normal;font-feature-settings:normal;text-align:start;writing-mode:lr-tb;text-anchor:start;fill:#ffffff;fill-opacity:1;stroke-width:0.02645833"
           id="path4494"
           inkscape:connector-curvature="0" />
        <path
           d="m 113.69998,105.21791 h 1.62983 v -2.2225 h 1.23825 c 1.66158,0 2.99508,-0.889 2.99508,-2.6035 v -0.0212 c 0,-1.513412 -1.06891,-2.561162 -2.83633,-2.561162 h -3.02683 z m 1.62983,-3.67242 v -2.264829 h 1.25942 c 0.81491,0 1.32291,0.391583 1.32291,1.121829 v 0.0212 c 0,0.635 -0.47625,1.12183 -1.29116,1.12183 z"
           style="font-style:normal;font-variant:normal;font-weight:normal;font-stretch:normal;font-size:10.58333302px;font-family:Gotham;-inkscape-font-specification:'Gotham, Normal';font-variant-ligatures:normal;font-variant-caps:normal;font-variant-numeric:normal;font-feature-settings:normal;text-align:start;writing-mode:lr-tb;text-anchor:start;fill:#ffffff;fill-opacity:1;stroke-width:0.02645833"
           id="path4496"
           inkscape:connector-curvature="0" />
        <path
           d="m 123.40456,105.32374 c 1.59809,0 2.71992,-0.8255 2.71992,-2.29658 v -0.0212 c 0,-1.29116 -0.84667,-1.83091 -2.3495,-2.2225 -1.28058,-0.32808 -1.59808,-0.48683 -1.59808,-0.973662 v -0.02117 c 0,-0.359833 0.32808,-0.645583 0.9525,-0.645583 0.62441,0 1.27,0.275166 1.92616,0.73025 l 0.84667,-1.227667 c -0.75142,-0.60325 -1.67217,-0.941917 -2.75167,-0.941917 -1.51341,0 -2.59291,0.889 -2.59291,2.233084 v 0.02117 c 0,1.471085 0.96308,1.883835 2.45533,2.264835 1.23825,0.3175 1.49225,0.52916 1.49225,0.94191 v 0.0212 c 0,0.43392 -0.40217,0.6985 -1.06892,0.6985 -0.84666,0 -1.54516,-0.34925 -2.21191,-0.89958 l -0.96309,1.15358 c 0.889,0.79375 2.02142,1.18533 3.14325,1.18533 z"
           style="font-style:normal;font-variant:normal;font-weight:normal;font-stretch:normal;font-size:10.58333302px;font-family:Gotham;-inkscape-font-specification:'Gotham, Normal';font-variant-ligatures:normal;font-variant-caps:normal;font-variant-numeric:normal;font-feature-settings:normal;text-align:start;writing-mode:lr-tb;text-anchor:start;fill:#ffffff;fill-opacity:1;stroke-width:0.02645833"
           id="path4498"
           inkscape:connector-curvature="0" />
        <path
           d="m 129.10898,105.21791 h 1.62983 v -5.905499 h 2.25425 v -1.502833 h -6.13833 v 1.502833 h 2.25425 z"
           style="font-style:normal;font-variant:normal;font-weight:normal;font-stretch:normal;font-size:10.58333302px;font-family:Gotham;-inkscape-font-specification:'Gotham, Normal';font-variant-ligatures:normal;font-variant-caps:normal;font-variant-numeric:normal;font-feature-settings:normal;text-align:start;writing-mode:lr-tb;text-anchor:start;fill:#ffffff;fill-opacity:1;stroke-width:0.02645833"
           id="path4500"
           inkscape:connector-curvature="0" />
        <path
           d="m 132.66068,105.21791 h 1.66158 l 0.67733,-1.66158 h 3.13267 l 0.67733,1.66158 h 1.70392 l -3.175,-7.461249 h -1.50283 z m 2.921,-3.10092 0.98425,-2.402412 0.98425,2.402412 z"
           style="font-style:normal;font-variant:normal;font-weight:normal;font-stretch:normal;font-size:10.58333302px;font-family:Gotham;-inkscape-font-specification:'Gotham, Normal';font-variant-ligatures:normal;font-variant-caps:normal;font-variant-numeric:normal;font-feature-settings:normal;text-align:start;writing-mode:lr-tb;text-anchor:start;fill:#ffffff;fill-opacity:1;stroke-width:0.02645833"
           id="path4502"
           inkscape:connector-curvature="0" />
        <path
           d="m 141.64659,105.21791 h 1.62983 v -2.37067 h 1.28059 l 1.5875,2.37067 h 1.905 l -1.80975,-2.64583 c 0.94191,-0.34925 1.5875,-1.10067 1.5875,-2.29659 v -0.0212 c 0,-0.698502 -0.22225,-1.280586 -0.635,-1.693336 -0.48684,-0.486833 -1.21709,-0.751416 -2.159,-0.751416 h -3.38667 z m 1.62983,-3.81 v -2.127249 h 1.61925 c 0.79375,0 1.28059,0.359833 1.28059,1.058329 v 0.0212 c 0,0.62442 -0.45509,1.04775 -1.24884,1.04775 z"
           style="font-style:normal;font-variant:normal;font-weight:normal;font-stretch:normal;font-size:10.58333302px;font-family:Gotham;-inkscape-font-specification:'Gotham, Normal';font-variant-ligatures:normal;font-variant-caps:normal;font-variant-numeric:normal;font-feature-settings:normal;text-align:start;writing-mode:lr-tb;text-anchor:start;fill:#ffffff;fill-opacity:1;stroke-width:0.02645833"
           id="path4504"
           inkscape:connector-curvature="0" />
        <path
           d="m 151.01978,105.21791 h 1.62984 v -5.905499 h 2.25425 v -1.502833 h -6.13834 v 1.502833 h 2.25425 z"
           style="font-style:normal;font-variant:normal;font-weight:normal;font-stretch:normal;font-size:10.58333302px;font-family:Gotham;-inkscape-font-specification:'Gotham, Normal';font-variant-ligatures:normal;font-variant-caps:normal;font-variant-numeric:normal;font-feature-settings:normal;text-align:start;writing-mode:lr-tb;text-anchor:start;fill:#ffffff;fill-opacity:1;stroke-width:0.02645833"
           id="path4506"
           inkscape:connector-curvature="0" />
      </g>
      <g
         aria-label="SOFTWARE CONSULTING"
         style="font-style:normal;font-variant:normal;font-weight:normal;font-stretch:normal;font-size:4.93888903px;line-height:1.25;font-family:Gotham;-inkscape-font-specification:'Gotham, Normal';font-variant-ligatures:normal;font-variant-caps:normal;font-variant-numeric:normal;font-feature-settings:normal;text-align:start;letter-spacing:0px;word-spacing:0px;writing-mode:lr-tb;text-anchor:start;fill:#ffffff;fill-opacity:1;stroke:none;stroke-width:0.26458332"
         id="text4741-8">
        <path
           d="m 91.622593,110.50152 c 0.745773,0 1.269295,-0.38523 1.269295,-1.07174 v -0.01 c 0,-0.60255 -0.395111,-0.85443 -1.096433,-1.03717 -0.597606,-0.15311 -0.745773,-0.22719 -0.745773,-0.45438 v -0.01 c 0,-0.16792 0.153106,-0.30127 0.4445,-0.30127 0.291395,0 0.592667,0.12841 0.898878,0.34078 l 0.395111,-0.57291 c -0.350661,-0.28151 -0.780344,-0.43956 -1.284111,-0.43956 -0.706261,0 -1.210028,0.41487 -1.210028,1.04211 v 0.01 c 0,0.6865 0.449439,0.87912 1.145823,1.05692 0.57785,0.14816 0.696383,0.24694 0.696383,0.43956 v 0.01 c 0,0.20249 -0.187678,0.32596 -0.498828,0.32596 -0.395111,0 -0.721078,-0.16298 -1.032228,-0.4198 l -0.449439,0.53834 c 0.414867,0.37041 0.943328,0.55315 1.46685,0.55315 z"
           style="fill:#ffffff;fill-opacity:1;stroke-width:0.26458332"
           id="path4509"
           inkscape:connector-curvature="0" />
        <path
           d="m 95.236008,110.5114 c 1.0668,0 1.842206,-0.80504 1.842206,-1.78788 v -0.01 c 0,-0.98283 -0.765528,-1.778 -1.832328,-1.778 -1.0668,0 -1.842206,0.80504 -1.842206,1.78788 v 0.01 c 0,0.98284 0.765528,1.778 1.832328,1.778 z m 0.0099,-0.70132 c -0.612422,0 -1.047045,-0.49389 -1.047045,-1.08656 v -0.01 c 0,-0.59266 0.424745,-1.07667 1.037167,-1.07667 0.612422,0 1.047045,0.49389 1.047045,1.08655 v 0.01 c 0,0.59267 -0.424745,1.07668 -1.037167,1.07668 z"
           style="fill:#ffffff;fill-opacity:1;stroke-width:0.26458332"
           id="path4511"
           inkscape:connector-curvature="0" />
        <path
           d="m 97.752912,110.45213 h 0.760589 v -1.33844 h 1.649589 v -0.69144 h -1.649589 v -0.73589 h 1.871839 v -0.69145 h -2.632428 z"
           style="fill:#ffffff;fill-opacity:1;stroke-width:0.26458332"
           id="path4513"
           inkscape:connector-curvature="0" />
        <path
           d="m 101.7991,110.45213 h 0.76059 v -2.7559 h 1.05198 v -0.70132 h -2.86456 v 0.70132 h 1.05199 z"
           style="fill:#ffffff;fill-opacity:1;stroke-width:0.26458332"
           id="path4515"
           inkscape:connector-curvature="0" />
        <path
           d="m 105.11031,110.47683 h 0.66181 l 0.78035,-2.26201 0.78034,2.26201 h 0.66181 l 1.1804,-3.48192 h -0.79516 l -0.71614,2.34103 -0.77541,-2.35091 h -0.65193 l -0.77541,2.35091 -0.71613,-2.34103 h -0.81492 z"
           style="fill:#ffffff;fill-opacity:1;stroke-width:0.26458332"
           id="path4517"
           inkscape:connector-curvature="0" />
        <path
           d="m 108.99351,110.45213 h 0.77541 l 0.31609,-0.7754 h 1.46191 l 0.31609,0.7754 h 0.79516 l -1.48167,-3.48191 h -0.70132 z m 1.36314,-1.44709 0.45931,-1.12113 0.45932,1.12113 z"
           style="fill:#ffffff;fill-opacity:1;stroke-width:0.26458332"
           id="path4519"
           inkscape:connector-curvature="0" />
        <path
           d="m 113.18694,110.45213 h 0.76059 v -1.10631 h 0.5976 l 0.74084,1.10631 h 0.889 l -0.84455,-1.23472 c 0.43956,-0.16298 0.74083,-0.51364 0.74083,-1.07174 v -0.01 c 0,-0.32596 -0.10372,-0.5976 -0.29633,-0.79022 -0.22719,-0.22719 -0.56797,-0.35066 -1.00754,-0.35066 h -1.58044 z m 0.76059,-1.778 v -0.99271 h 0.75565 c 0.37042,0 0.5976,0.16792 0.5976,0.49389 v 0.01 c 0,0.2914 -0.21237,0.48895 -0.58278,0.48895 z"
           style="fill:#ffffff;fill-opacity:1;stroke-width:0.26458332"
           id="path4521"
           inkscape:connector-curvature="0" />
        <path
           d="m 116.75606,110.45213 h 2.63243 v -0.67662 h -1.87678 v -0.72602 h 1.62983 v -0.67663 h -1.62983 v -0.70132 h 1.85208 v -0.67663 h -2.60773 z"
           style="fill:#ffffff;fill-opacity:1;stroke-width:0.26458332"
           id="path4523"
           inkscape:connector-curvature="0" />
        <path
           d="m 123.17021,110.5114 c 0.66675,0 1.06186,-0.23707 1.41746,-0.61736 l -0.48401,-0.48895 c -0.27164,0.24694 -0.51364,0.40499 -0.90876,0.40499 -0.59266,0 -1.00259,-0.49389 -1.00259,-1.08656 v -0.01 c 0,-0.59266 0.41981,-1.07667 1.00259,-1.07667 0.34573,0 0.61737,0.14816 0.88407,0.39017 l 0.48401,-0.5581 c -0.32103,-0.31608 -0.7112,-0.5334 -1.36314,-0.5334 -1.06186,0 -1.80269,0.80504 -1.80269,1.78788 v 0.01 c 0,0.99272 0.75565,1.778 1.77306,1.778 z"
           style="fill:#ffffff;fill-opacity:1;stroke-width:0.26458332"
           id="path4525"
           inkscape:connector-curvature="0" />
        <path
           d="m 126.7793,110.5114 c 1.0668,0 1.84221,-0.80504 1.84221,-1.78788 v -0.01 c 0,-0.98283 -0.76553,-1.778 -1.83233,-1.778 -1.0668,0 -1.8422,0.80504 -1.8422,1.78788 v 0.01 c 0,0.98284 0.76552,1.778 1.83232,1.778 z m 0.01,-0.70132 c -0.61242,0 -1.04704,-0.49389 -1.04704,-1.08656 v -0.01 c 0,-0.59266 0.42474,-1.07667 1.03716,-1.07667 0.61243,0 1.04705,0.49389 1.04705,1.08655 v 0.01 c 0,0.59267 -0.42475,1.07668 -1.03717,1.07668 z"
           style="fill:#ffffff;fill-opacity:1;stroke-width:0.26458332"
           id="path4527"
           inkscape:connector-curvature="0" />
        <path
           d="m 129.29621,110.45213 h 0.75071 v -2.1978 l 1.67428,2.1978 h 0.647 v -3.45722 h -0.75072 v 2.12866 l -1.61995,-2.12866 h -0.70132 z"
           style="fill:#ffffff;fill-opacity:1;stroke-width:0.26458332"
           id="path4529"
           inkscape:connector-curvature="0" />
        <path
           d="m 134.42308,110.50152 c 0.74577,0 1.2693,-0.38523 1.2693,-1.07174 v -0.01 c 0,-0.60255 -0.39512,-0.85443 -1.09644,-1.03717 -0.5976,-0.15311 -0.74577,-0.22719 -0.74577,-0.45438 v -0.01 c 0,-0.16792 0.15311,-0.30127 0.4445,-0.30127 0.29139,0 0.59267,0.12841 0.89888,0.34078 l 0.39511,-0.57291 c -0.35066,-0.28151 -0.78035,-0.43956 -1.28411,-0.43956 -0.70626,0 -1.21003,0.41487 -1.21003,1.04211 v 0.01 c 0,0.6865 0.44944,0.87912 1.14582,1.05692 0.57785,0.14816 0.69639,0.24694 0.69639,0.43956 v 0.01 c 0,0.20249 -0.18768,0.32596 -0.49883,0.32596 -0.39511,0 -0.72108,-0.16298 -1.03223,-0.4198 l -0.44944,0.53834 c 0.41487,0.37041 0.94333,0.55315 1.46685,0.55315 z"
           style="fill:#ffffff;fill-opacity:1;stroke-width:0.26458332"
           id="path4531"
           inkscape:connector-curvature="0" />
        <path
           d="m 137.79943,110.50646 c 0.92851,0 1.51624,-0.51364 1.51624,-1.56069 v -1.95086 h -0.76059 v 1.9805 c 0,0.54821 -0.28151,0.82973 -0.74577,0.82973 -0.46426,0 -0.74577,-0.2914 -0.74577,-0.85443 v -1.9558 h -0.76059 v 1.97556 c 0,1.01741 0.56797,1.53599 1.49648,1.53599 z"
           style="fill:#ffffff;fill-opacity:1;stroke-width:0.26458332"
           id="path4533"
           inkscape:connector-curvature="0" />
        <path
           d="m 140.09038,110.45213 h 2.48426 v -0.69144 h -1.72367 v -2.76578 h -0.76059 z"
           style="fill:#ffffff;fill-opacity:1;stroke-width:0.26458332"
           id="path4535"
           inkscape:connector-curvature="0" />
        <path
           d="m 143.46133,110.45213 h 0.76059 v -2.7559 h 1.05198 v -0.70132 h -2.86456 v 0.70132 h 1.05199 z"
           style="fill:#ffffff;fill-opacity:1;stroke-width:0.26458332"
           id="path4537"
           inkscape:connector-curvature="0" />
        <path
           d="m 145.89342,110.45213 h 0.76059 v -3.45722 h -0.76059 z"
           style="fill:#ffffff;fill-opacity:1;stroke-width:0.26458332"
           id="path4539"
           inkscape:connector-curvature="0" />
        <path
           d="m 147.51801,110.45213 h 0.75071 v -2.1978 l 1.67428,2.1978 h 0.647 v -3.45722 h -0.75071 v 2.12866 l -1.61996,-2.12866 h -0.70132 z"
           style="fill:#ffffff;fill-opacity:1;stroke-width:0.26458332"
           id="path4541"
           inkscape:connector-curvature="0" />
        <path
           d="m 153.0795,110.5114 c 0.63218,0 1.12113,-0.24694 1.47673,-0.54822 v -1.50142 h -1.50142 v 0.65687 h 0.76553 v 0.49389 c -0.19262,0.13829 -0.43956,0.20744 -0.71614,0.20744 -0.61242,0 -1.04705,-0.46426 -1.04705,-1.09644 v -0.01 c 0,-0.58772 0.43957,-1.07667 0.99272,-1.07667 0.40005,0 0.63712,0.12841 0.90382,0.35066 l 0.47907,-0.57785 c -0.36054,-0.30621 -0.73589,-0.47414 -1.35819,-0.47414 -1.04705,0 -1.81258,0.80504 -1.81258,1.78788 v 0.01 c 0,1.02235 0.74084,1.778 1.81751,1.778 z"
           style="fill:#ffffff;fill-opacity:1;stroke-width:0.26458332"
           id="path4543"
           inkscape:connector-curvature="0" />
      </g>
    </g>
  </g>
</svg>
