<?xml version="1.0" encoding="UTF-8" standalone="no"?>
<!-- Created with Inkscape (http://www.inkscape.org/) -->

<svg
   xmlns:dc="http://purl.org/dc/elements/1.1/"
   xmlns:cc="http://creativecommons.org/ns#"
   xmlns:rdf="http://www.w3.org/1999/02/22-rdf-syntax-ns#"
   xmlns:svg="http://www.w3.org/2000/svg"
   xmlns="http://www.w3.org/2000/svg"
   xmlns:sodipodi="http://sodipodi.sourceforge.net/DTD/sodipodi-0.dtd"
   xmlns:inkscape="http://www.inkscape.org/namespaces/inkscape"
   width="18.859661mm"
   height="18.862667mm"
   viewBox="0 0 18.859661 18.862667"
   version="1.1"
   id="svg8"
   inkscape:version="0.92.1 r15371"
   sodipodi:docname="jumpstart_logo_orange_peel_without_text.svg"
   inkscape:export-filename="\\MACLEOD\ferg\Documents\Jumpstart Software Consulting\Logo\jumpstart_logo_orange_peel_without_text.png"
   inkscape:export-xdpi="728.16998"
   inkscape:export-ydpi="728.16998">
  <defs
     id="defs2" />
  <sodipodi:namedview
     id="base"
     pagecolor="#ffffff"
     bordercolor="#666666"
     borderopacity="1.0"
     inkscape:pageopacity="0.0"
     inkscape:pageshadow="2"
     inkscape:zoom="2.8284271"
     inkscape:cx="23.571942"
     inkscape:cy="39.642439"
     inkscape:document-units="mm"
     inkscape:current-layer="layer1"
     showgrid="false"
     inkscape:window-width="1920"
     inkscape:window-height="1017"
     inkscape:window-x="-8"
     inkscape:window-y="-8"
     inkscape:window-maximized="1"
     inkscape:measure-start="501.687,545.937"
     inkscape:measure-end="0,0"
     fit-margin-top="0.5"
     fit-margin-left="0.5"
     fit-margin-right="0.5"
     fit-margin-bottom="0.5" />
  <metadata
     id="metadata5">
    <rdf:RDF>
      <cc:Work
         rdf:about="">
        <dc:format>image/svg+xml</dc:format>
        <dc:type
           rdf:resource="http://purl.org/dc/dcmitype/StillImage" />
        <dc:title />
      </cc:Work>
    </rdf:RDF>
  </metadata>
  <g
     inkscape:label="Layer 1"
     inkscape:groupmode="layer"
     id="layer1"
     transform="translate(-69.760299,-94.676233)">
    <g
       id="g4971"
       transform="translate(-46.692097,-40.3953)"
       style="fill:#ff9f00;fill-opacity:1">
      <path
         transform="scale(0.26458333)"
         sodipodi:nodetypes="cccccccccccccsccsscsccscsssscsscscscssscsssscscsccccccccccccsssscccsscccscscccccccscccsccccccccccccccccccccccccccccccccccccccccccccccccc"
         inkscape:connector-curvature="0"
         id="path4563"
         d="m 477.24219,512.42383 c -1.47078,-0.0585 -2.94271,-0.024 -4.4043,0.10742 -9.91105,0.64732 -19.37437,5.96377 -24.91406,14.23047 -7.56586,10.32041 -7.64321,24.90509 -1.43945,35.88476 0.91159,1.75471 2.03705,3.36217 3.26171,4.88672 0.66639,-0.29457 3.59689,-1.27389 3.76172,-1.24609 0.10609,0.0186 1.01454,2.85265 0.94727,2.95508 -0.0164,0.025 -0.77781,0.28729 -1.69336,0.58398 -0.3459,0.11215 -0.45283,0.18987 -0.71484,0.28516 7.2094,7.18045 17.81515,10.9191 27.95312,9.5 16.09168,-2.15123 30.18643,-17.01106 29.50195,-33.58399 0.0599,-6.90156 -2.21929,-13.73396 -6.11523,-19.40234 -5.64692,-8.78696 -15.84909,-13.79142 -26.14453,-14.20117 z m 9.49023,7.93164 c 1.49133,0 2.911,0.30315 4.20313,0.84961 1.29212,0.54646 2.45642,1.33729 3.43359,2.31445 0.97717,0.97717 1.76799,2.13953 2.31445,3.43164 0.54646,1.29211 0.84766,2.71377 0.84766,4.20508 0,0.99669 -0.13552,1.95829 -0.39063,2.87109 -0.25501,0.91281 -0.62943,1.77559 -1.10351,2.57227 -0.47408,0.79668 -1.04814,1.52745 -1.70508,2.17578 -0.65694,0.64834 -1.3975,1.21584 -2.20117,1.68359 v 3.65625 c 0,0.59694 -0.24178,1.13854 -0.63281,1.5293 -0.39103,0.39077 -0.92951,0.63086 -1.52539,0.63086 h -6.48047 c -0.59694,0 -1.13658,-0.2401 -1.52735,-0.63086 -0.39076,-0.39075 -0.63281,-0.93232 -0.63281,-1.5293 v -3.65625 c -0.80367,-0.46828 -1.54228,-1.03516 -2.19922,-1.68359 -0.65694,-0.64843 -1.23295,-1.37923 -1.70703,-2.17578 -0.47408,-0.79655 -0.84646,-1.65963 -1.10156,-2.57227 -0.2551,-0.91263 -0.39258,-1.8744 -0.39258,-2.87109 0,-1.49133 0.30315,-2.91295 0.84961,-4.20508 0.54646,-1.29212 1.33728,-2.45447 2.31445,-3.43164 0.97717,-0.97717 2.13952,-1.76799 3.43164,-2.31445 1.29213,-0.54646 2.71376,-0.84961 4.20508,-0.84961 z m -3.24023,27 h 6.48047 c 0.29848,0 0.56829,0.12103 0.76367,0.31641 0.19538,0.19528 0.3164,0.46518 0.3164,0.76367 0,0.29849 -0.12102,0.56829 -0.3164,0.76367 -0.19538,0.19538 -0.46519,0.3164 -0.76367,0.3164 h -6.48047 c -0.29849,0 -0.5683,-0.12102 -0.76367,-0.3164 -0.19538,-0.19538 -0.31641,-0.46518 -0.31641,-0.76367 0,-0.29849 0.12103,-0.56839 0.31641,-0.76367 0.19537,-0.19538 0.46518,-0.31641 0.76367,-0.31641 z m -22.01367,1.79687 c 3.35531,-0.009 6.70417,-9.4e-4 6.89843,0.0293 0.42739,0.0703 0.99512,0.55283 1.13867,0.9668 0.15194,0.44061 0.14773,3.84564 -0.008,4.31445 -0.1796,0.54595 -0.6095,0.90022 -1.19922,0.98828 -0.57819,0.0847 -13.46459,0.14099 -13.83007,0.0586 -0.31253,-0.0705 -0.82438,-0.46465 -1.00391,-0.77344 -0.19351,-0.33098 -0.19557,-0.36356 -0.20313,-2.35938 -0.006,-1.24025 0.0374,-1.92577 0.13868,-2.19336 0.17053,-0.45018 0.69626,-0.90021 1.1289,-0.96484 0.2211,-0.0329 3.58418,-0.0589 6.93946,-0.0664 z m 22.01367,1.44336 h 6.48047 c 0.29848,0 0.56829,0.12103 0.76367,0.31641 0.19538,0.19538 0.3164,0.46518 0.3164,0.76367 0,0.29849 -0.12102,0.5683 -0.3164,0.76367 -0.19538,0.19538 -0.46519,0.31641 -0.76367,0.31641 0,0.59694 -0.24206,1.13658 -0.63282,1.52734 -0.39076,0.39077 -0.93038,0.63282 -1.52734,0.63282 h -2.16016 c -0.59693,0 -1.13657,-0.24206 -1.52734,-0.63282 -0.39077,-0.39075 -0.63281,-0.93036 -0.63281,-1.52734 -0.29849,0 -0.5683,-0.12103 -0.76367,-0.31641 -0.19538,-0.19537 -0.31641,-0.46518 -0.31641,-0.76367 0,-0.29849 0.12103,-0.56829 0.31641,-0.76367 0.19537,-0.19538 0.46518,-0.31641 0.76367,-0.31641 z m -1.92969,0.10157 -0.002,3.11914 c -0.51867,-1.2e-4 -1.02992,0.23805 -1.31641,0.71484 l -0.22852,0.38086 -0.39257,-0.30469 c -0.21638,-0.16702 -0.63445,-0.38661 -0.92774,-0.48828 -0.44541,-0.1542 -0.66318,-0.16513 -1.32422,-0.0664 -0.47174,0.0705 -0.85174,0.19653 -1.17773,0.39844 -0.32599,0.20191 -0.5974,0.4807 -0.84766,0.85742 -0.17083,0.25743 -0.32277,0.45262 -0.33789,0.4375 -0.0154,-0.0165 -0.20732,-0.23902 -0.42578,-0.49414 -0.29216,-0.34089 -0.66552,-0.62129 -1.07422,-0.81836 -0.4087,-0.19707 -0.85271,-0.3108 -1.2832,-0.31836 -0.22303,-0.004 -0.53418,-0.01 -0.69141,-0.0176 -0.24756,-0.0117 -0.2866,-0.0508 -0.27148,-0.28516 0.01,-0.1491 0.0151,-0.87929 0.0117,-1.62109 -10e-4,-0.74185 0.0164,-1.37406 0.0391,-1.4043 0.023,-0.031 3.6939,-0.0708 8.1582,-0.0859 0.9111,-0.003 1.36054,-0.002 2.0918,-0.004 z m -3.47461,4.10546 c 0.16539,0.0197 0.32376,0.0719 0.54297,0.16602 0.43672,0.18743 0.67145,0.40005 1.34375,1.20898 0.45403,0.54626 0.76127,0.86628 1.05078,1.03711 0.2894,0.17273 0.55986,0.19108 0.93555,0.13477 0.50313,-0.0756 0.93515,-0.38445 1.15625,-0.82813 0.39658,-0.79596 0.47322,-0.87419 0.89453,-0.91992 0.56039,-0.061 0.81072,0.0514 1.06055,0.47852 0.22783,0.38974 0.59391,0.66106 0.99023,0.78125 0.39636,0.12019 0.82277,0.0905 1.17578,-0.12305 0.17533,-0.10609 0.47799,-0.39905 0.67188,-0.65039 0.43857,-0.5684 0.91662,-0.89724 1.33789,-0.91992 l 0.32422,-0.0156 0.15234,1.03907 c 0.0877,0.6003 0.11198,0.99048 0.0488,1.28906 -0.0631,0.29851 -0.21395,0.50597 -0.47852,0.74219 -0.29998,0.26755 -1.09454,0.52717 -8.2168,2.67968 -4.33639,1.31055 -7.89503,2.3767 -7.91015,2.36914 -0.0143,-0.008 -0.23512,-0.68589 -0.49024,-1.50586 -0.25519,-0.81995 -0.47707,-1.53913 -0.49218,-1.5996 -0.0173,-0.0643 0.25181,-0.19547 0.64843,-0.31641 0.63814,-0.19438 1.14103,-0.47177 1.54102,-0.86719 0.39995,-0.39541 0.69662,-0.90744 0.92188,-1.5664 0.31633,-0.92603 0.59444,-1.52964 0.92968,-1.92188 0.33513,-0.39209 0.7276,-0.5731 1.27344,-0.65625 0.24926,-0.0378 0.42235,-0.0503 0.58789,-0.0312 v -0.002 z m -9.08398,4.65625 0.51562,0.16797 c 0.38037,0.12322 0.60901,0.24679 0.81836,0.59375 0.20939,0.34696 0.39957,0.91656 0.70703,1.9336 0.32806,1.08223 0.4915,1.7191 0.48828,2.16992 -0.003,0.45082 -0.17199,0.7168 -0.50976,1.05469 -0.28951,0.28951 -13.2383,4.221 -13.70117,4.16015 -0.45245,-0.0597 -0.74485,-0.175 -0.99415,-0.5 -0.24907,-0.32504 -0.45596,-0.8585 -0.73632,-1.7539 -0.56795,-1.81342 -0.68438,-2.49517 -0.50977,-2.98243 0.12851,-0.35943 0.21429,-0.54877 1.1543,-0.91406 0.93982,-0.36548 2.73424,-0.90569 6.27539,-1.97265 z"
         style="fill:#ff9f00;fill-opacity:1;stroke:#000000;stroke-width:0;stroke-miterlimit:4;stroke-dasharray:none;stroke-opacity:1" />
      <path
         inkscape:connector-curvature="0"
         id="path4803"
         d="m 126.42226,147.15587 c -0.0541,7.9e-4 -0.10952,0.0246 -0.15142,0.076 -0.068,0.0833 -0.0783,0.15777 -0.0326,0.23667 0.0596,0.10289 0.16311,0.12688 0.24701,0.0956 0.0839,-0.0313 0.14844,-0.11765 0.13074,-0.23617 -0.0164,-0.10963 -0.10348,-0.17308 -0.19378,-0.17208 z"
         style="fill:#ff9f00;fill-opacity:1;stroke:#000000;stroke-width:0;stroke-miterlimit:4;stroke-dasharray:none;stroke-opacity:1" />
    </g>
  </g>
</svg>
